<svg xmlns="http://www.w3.org/2000/svg" viewBox="0 0 976.8 962.1">
  <defs>
    <style>
      .cls-1{fill:#a0b100}.cls-2{fill:#e94a63}.cls-3{fill:#bf1640}.cls-4{fill:#fff6cc}.cls-5{fill:#d40a57}.cls-6{fill:#1d1d1b}.cls-7{fill:#fc0}.cls-8{fill:#fff}.cls-9{fill:#35b6b4}.cls-10{fill:#ed6a78}.cls-11{fill:#7cc8c4}.cls-12{fill:#432918}.cls-13{fill:#f4abb9}.cls-14{fill:#eeedef}.cls-15{fill:#8e8c89}.cls-16{fill:#f39200}.cls-17{fill:#c3c910}.cls-18{fill:#13110c}.cls-20{fill:#ee757f}
    </style>
  </defs>
  <g id="Layer_2" data-name="Layer 2">
    <g id="_3_flowers" data-name="3 flowers">
      <path class="cls-1" d="M497.6 472h7.7v225.7h-7.7z"/>
      <path class="cls-1" d="M555.3 534c-17.1 2.6-57 13-53.5 52.9 49.9-5.9 54-39 53.5-52.9z"/>
      <path class="cls-1" d="M447.6 534c17.1 2.6 57 13 53.5 52.9-49.9-5.9-54-39-53.5-52.9z"/>
      <path class="cls-2" d="M579.7 359.4c-23.5-40.6-58 9.3-65.8 22.4l6.8 11.7 6.7 11.6c15.3-.2 75.7-5.1 52.3-45.7z"/>
      <path class="cls-2" d="M579.7 449.3c23.4-40.6-37-45.5-52.3-45.7l-6.7 11.7-6.7 11.6c7.8 13.1 42.2 63 65.7 22.4z"/>
      <path class="cls-2" d="M501.4 494.6c47 0 21-54.8 13.5-68.1H488c-7.5 13.3-33.5 68.1 13.4 68.1z"/>
      <path class="cls-2" d="M423.2 449.3c23.5 40.6 58-9.3 65.7-22.4l-6.7-11.6-6.7-11.7c-15.3.2-75.7 5-52.3 45.7z"/>
      <path class="cls-2" d="M423.2 359.4c-23.4 40.6 37 45.5 52.3 45.7l6.7-11.6 6.7-11.7c-7.8-13.1-42.2-63-65.7-22.4z"/>
      <path class="cls-2" d="M501.4 314.1c-46.9 0-20.9 54.8-13.4 68.1h26.9c7.5-13.3 33.5-68-13.5-68z"/>
      <path class="cls-3" d="M484.8 443.2v-.3l-.3.2a16 16 0 11-22.5-22.5l.3-.2h-.4a16 16 0 010-31.9h.3l-.3-.3a16 16 0 1122.5-22.5l.2.2v-.3a16 16 0 0132-.1v.3l.2-.2a16 16 0 0122.5 22.4l-.2.2h.3a16 16 0 0116 15.9v.2a16 16 0 01-15.9 16h-.3l.2.2a16 16 0 11-22.5 22.5l-.3-.2v.3a16 16 0 01-31.8 0zm4.4-11a16 16 0 0123 0 16 16 0 0116.3-16.3 15.9 15.9 0 01-5-11.5 16 16 0 015-11.6 16 16 0 01-16.4-16.3 16 16 0 01-23 0 16 16 0 01-16.2 16.4 16 16 0 010 23 16 16 0 0116.3 16.3z"/>
      <path class="cls-4" d="M539.5 404.4a38.8 38.8 0 11-38.8-38.9 38.8 38.8 0 0138.8 38.9z"/>
      <path class="cls-5" d="M485.4 407.8a6.7 6.7 0 11-6.8-6.7 6.7 6.7 0 016.8 6.7zM529.4 407.8a6.7 6.7 0 11-6.7-6.7 6.7 6.7 0 016.7 6.7z"/>
      <path class="cls-6" d="M481.8 398.1a10.5 10.5 0 01-8-3.7l1.6-1.3a8.4 8.4 0 0012.8 0l1.6 1.3a10.6 10.6 0 01-8 3.7zM519.5 398.1a10.6 10.6 0 01-8-3.7l1.6-1.3a8.4 8.4 0 0012.9 0l1.6 1.3a10.5 10.5 0 01-8 3.7zM500.7 423a17.7 17.7 0 01-10.5-3.4l1.3-1.7a15.6 15.6 0 0018.4 0l1.2 1.7a17.7 17.7 0 01-10.4 3.4z"/>
      <path class="cls-1" d="M87.4 472h7.7v225.7h-7.7z"/>
      <path class="cls-1" d="M145.2 534c-17.2 2.6-57.2 13-53.6 52.9 50-5.9 54-39 53.6-52.9z"/>
      <path class="cls-1" d="M37.4 534c17.1 2.6 57.1 13 53.5 52.9-49.9-5.9-54-39-53.5-52.9z"/>
      <path class="cls-2" d="M182.5 412.2c-1-7.3-9.9-12.7-22.7-14.9 8.1-10.2 11.2-20.2 7-26.2s-14.5-6.7-27-2.7c2.5-12.8.6-23-5.8-26.5s-16 1-25.2 10.2c-3.7-12.4-10.2-20.7-17.5-20.7s-13.8 8.3-17.6 20.7c-9-9.3-18.6-13.6-25.1-10.2s-8.4 13.7-6 26.5c-12.3-4-22.8-3.3-27 2.7s-1 16 7.2 26.2C9.9 399.5 1 404.9 0 412.3s6.5 14.6 18.4 19.8C8.2 440.1 2.8 449 5.4 456s12.6 10 25.6 9c-5.5 11.8-6.1 22.3-.6 27.2s15.8 3 26.9-4c.6 13 5 22.6 12 24.4s15.4-4.7 22-16c6.7 11.3 14.9 17.7 22 16s11.4-11.3 12.1-24.3c11 6.8 21.4 8.7 26.9 3.9s4.8-15.4-.7-27.2c13 1 23-2.2 25.6-9s-2.8-15.8-13.1-23.8c11.8-5.2 19.3-12.6 18.4-19.9z"/>
      <path class="cls-7" d="M144.3 423.2a53 53 0 11-53-53 53 53 0 0153 53z"/>
      <path class="cls-4" d="M131.2 423.2a39.9 39.9 0 11-40-39.9 39.9 39.9 0 0140 39.9z"/>
      <path class="cls-8" d="M99.8 369.5a8.5 8.5 0 11-8.5-8.5 8.5 8.5 0 018.5 8.5zM69.4 373.5a8.5 8.5 0 11-11.7-2.6 8.5 8.5 0 0111.7 2.6zM46 393.2a8.5 8.5 0 11-11.2 4.2 8.5 8.5 0 0111.2-4.2zM37 422.4a8.5 8.5 0 11-7.2 9.6 8.5 8.5 0 017.2-9.6zM45.2 452a8.5 8.5 0 11-.9 12 8.5 8.5 0 01.9-12zM68 472.3a8.5 8.5 0 115.7 10.5 8.5 8.5 0 01-5.7-10.5zM98.3 477a8.5 8.5 0 1110.5 5.8 8.5 8.5 0 01-10.5-5.7zM126.3 464.7a8.5 8.5 0 1112-.8 8.5 8.5 0 01-12 .8zM143.2 439.2a8.5 8.5 0 119.6-7.2 8.5 8.5 0 01-9.6 7.2zM143.6 408.6a8.5 8.5 0 114.2-11.2 8.5 8.5 0 01-4.2 11.2zM127.4 382.6A8.5 8.5 0 11125 371a8.5 8.5 0 012.5 11.7z"/>
      <path class="cls-5" d="M73.2 426.5a6.9 6.9 0 11-6.9-6.9 6.9 6.9 0 016.9 6.9zM123 426.5a6.9 6.9 0 11-6.8-6.9 6.9 6.9 0 016.9 6.9z"/>
      <path class="cls-6" d="M112.6 409.8a12 12 0 019.1 4.2l-1.8 1.6a9.6 9.6 0 00-14.5 0l-1.9-1.6a12 12 0 019.1-4.2zM69.9 409.8A11.9 11.9 0 0179 414l-1.8 1.5a9.6 9.6 0 00-14.6 0l-1.8-1.5a11.9 11.9 0 019.1-4.2zM91.3 443.7a20 20 0 01-11.9-3.9l1.4-1.9a17.7 17.7 0 0020.9 0l1.4 2a20 20 0 01-11.8 3.8z"/>
      <path class="cls-1" d="M295.8 489.8h7.7v225.7h-7.7z"/>
      <path class="cls-1" d="M371 567.8c-16.4 1.5-56.5 9.7-71.4 54.1 46.8-2.3 65.5-38.7 71.3-54zM228.3 567.8c16.3 1.5 56.4 9.7 71.3 54.1-46.8-2.3-65.5-38.7-71.4-54z"/>
      <path class="cls-2" d="M365 410.8c12.7-15 16.5-32.8 8-43.6s-26.9-11-44.4-1.8c-3.7-19.4-15.3-33.5-29-33.5s-25.3 14.1-29 33.5c-17.5-9.2-35.8-9-44.4 1.8s-4.7 28.6 8 43.6c-18 8-29.2 22.4-26.1 35.8s19.4 21.6 39 21c-5 19-.6 36.7 11.7 42.7s29-1.7 40.8-17.5c11.7 15.8 28.3 23.4 40.7 17.5s16.7-23.7 11.7-42.8c19.7.7 36-7.5 39-20.9s-8-27.8-26-35.8z"/>
      <path class="cls-9" d="M344.4 414.4c8.8-10.3 11.4-22.6 5.6-30s-18.5-7.5-30.5-1.2c-2.5-13.3-10.5-23-19.9-23s-17.4 9.6-20 23c-12-6.3-24.5-6.1-30.4 1.2s-3.3 19.7 5.5 30c-12.4 5.4-20 15.3-18 24.5s13.4 14.8 26.9 14.4c-3.5 13-.5 25.2 8 29.3s19.9-1.2 28-12c8 10.9 19.4 16.2 28 12s11.4-16.2 8-29.3c13.4.4 24.7-5.2 26.8-14.4s-5.6-19-18-24.5z"/>
      <path class="cls-4" d="M332.8 416.4c6.5-7.7 8.5-16.8 4.1-22.2s-13.6-5.6-22.5-1c-2-9.8-7.8-17-14.8-17s-12.9 7.2-14.8 17c-8.9-4.6-18.2-4.5-22.5 1s-2.5 14.5 4 22.2c-9.1 4-14.8 11.4-13.3 18.2s10 11 20 10.6c-2.6 9.7-.4 18.7 5.9 21.8s14.7-1 20.7-9c6 8 14.4 12 20.7 9s8.5-12 6-21.8c10 .3 18.3-3.8 19.8-10.6s-4.1-14.2-13.3-18.2z"/>
      <path class="cls-5" d="M285.2 425a6.3 6.3 0 11-6.3-6.4 6.3 6.3 0 016.3 6.3zM326.6 425a6.3 6.3 0 11-6.3-6.4 6.3 6.3 0 016.3 6.3z"/>
      <path class="cls-6" d="M281.9 414.9a9.9 9.9 0 01-7.6-3.5l1.5-1.3a8 8 0 0012.1 0l1.5 1.3a9.9 9.9 0 01-7.5 3.5zM317.3 414.9a9.9 9.9 0 01-7.5-3.5l1.5-1.3a8 8 0 0012 0l1.6 1.3a9.9 9.9 0 01-7.6 3.5zM299.6 439.2a16.6 16.6 0 01-9.8-3.2l1.2-1.6a14.7 14.7 0 0017.2 0l1.2 1.6a16.6 16.6 0 01-9.8 3.2z"/>
      <path class="cls-2" d="M527 744.4H58L25.7 672h533.4l-32.1 72.5z"/>
      <path class="cls-10" d="M213.5 671.9h5.1v72.5h-5.1zM190 671.9h5.1v72.5H190zM166.6 671.9h5.1v72.5h-5.1zM178.3 671.9h5.1v72.5h-5.1zM248.7 671.9h5.1v72.5h-5.1zM260.4 671.9h5.1v72.5h-5.1zM283.8 671.9h5.1v72.5h-5.1zM225.2 671.9h5.1v72.5h-5.1zM154.9 671.9h5.1v72.5h-5.1zM236.9 671.9h5.1v72.5h-5.1zM272.1 671.9h5.1v72.5h-5.1zM61.1 671.9h5.1v72.5h-5.1zM54.5 671.9h-5.1V725l5 11.6v-64.8zM72.8 671.9h5.1v72.5h-5.1zM26 672.2l5 11.5V672h-5v.3zM42.8 671.9h-5.2v26.7l5.2 11.6V672zM119.7 671.9h5.1v72.5h-5.1zM131.4 671.9h5.1v72.5h-5.1zM143.1 671.9h5.1v72.5h-5.1zM108 671.9h5.1v72.5H108zM96.3 671.9h5.1v72.5h-5.1zM84.5 671.9h5.1v72.5h-5.1zM201.8 671.9h5.1v72.5h-5.1zM494.2 671.9h5.1v72.5h-5.1zM470.8 671.9h5.1v72.5h-5.1zM482.5 671.9h5.1v72.5h-5.1zM447.3 671.9h5.1v72.5h-5.1zM459 671.9h5.1v72.5H459zM505.9 671.9h5.1v72.5h-5.1zM435.6 671.9h5.1v72.5h-5.1zM529.4 739.3l5-11.6v-55.8h-5v67.4zM558 671.9h-5.2v14.4l5.1-11.5v-3zM546.2 671.9h-5.1v41l5.1-11.7V672zM517.6 671.9h5.1v72.5h-5.1zM423.9 671.9h5.1v72.5h-5.1zM295.5 671.9h5.1v72.5h-5.1zM330.7 671.9h5.1v72.5h-5.1zM342.4 671.9h5.1v72.5h-5.1zM319 671.9h5.1v72.5H319zM307.3 671.9h5.1v72.5h-5.1zM353.5 671.9h5.1v72.5h-5.1zM412.1 671.9h5.1v72.5h-5.1zM400.4 671.9h5.1v72.5h-5.1zM388.7 671.9h5.1v72.5h-5.1zM365.3 671.9h5.1v72.5h-5.1zM377 671.9h5.1v72.5H377z"/>
      <path class="cls-9" d="M548.6 695.8l10.6-24H25.8l10.6 24h512.2z"/>
    </g>
    <g id="birdhouse_and_birds" data-name="birdhouse and birds">
      <path class="cls-2" d="M793.5 962q-9.2.2-18.5 0l5-445.8c2.7-2.4 5.5-2.1 8.4 0l5 445.8z"/>
      <path class="cls-9" d="M784.3 322.6L670.1 420 696 603.7h176.5L898.3 420l-114-97.5z"/>
      <path class="cls-11" d="M775.7 329.9l-4.6 4v269.8h4.6V329.9zM744.3 356.8l-4.6 3.9v243h4.6v-247zM765.2 338.9l-4.6 3.9v260.9h4.6V338.8zM723.3 374.7l-4.6 3.9v225h4.6v-229zM754.8 347.8l-4.6 4v251.9h4.5V347.8zM733.8 365.7l-4.6 4v234h4.6v-238zM681.4 410.5l-4.6 4v53l4.6 32.5v-89.5zM712.9 383.6l-4.6 4v216h4.6v-220zM691.9 401.6l-4.6 3.9v136.4l4.6 32.6v-173zM697.8 603.7h4.6V392.6l-4.6 4v207zM891 413.8l-4.6-4v95.4l4.5-32.6v-58.8zM859.5 387l-4.6-4v220.7h4.6V386.9zM870 395.9l-4.6-4v211.8h4.6V395.9zM875.9 579.7l4.6-32.6V404.8l-4.6-3.9v178.8zM849 378l-4.5-4v229.7h4.5V378zM838.6 369l-4.6-3.9v238.6h4.6V369zM807.1 342.1l-4.6-3.9v265.5h4.6V342zM796.7 333.2l-4.6-4v274.5h4.6V333.2zM817.6 351.1l-4.6-4v256.6h4.6V351zM786.2 603.7V324.2l-2-1.6-2.6 2.3v278.8h4.6zM828 360l-4.5-3.9v247.6h4.6V360z"/>
      <path class="cls-7" d="M784.3 326A922 922 0 00893 429.4q17.7-2.2 35.4-5.1a922.6 922.6 0 01-144.3-130.6A922.1 922.1 0 01640 424.3q17.7 2.9 35.4 5A920.5 920.5 0 00784.3 326zM767.4 541a16.9 16.9 0 01-23.8-23.9 16.9 16.9 0 01-.1-33.7 16.9 16.9 0 0123.8-24 16.9 16.9 0 0133.7 0 16.9 16.9 0 0124 23.7 16.9 16.9 0 0116.6 16.8v.3A16.9 16.9 0 01825 517a16.9 16.9 0 01-23.8 23.9 16.9 16.9 0 01-33.7 0zm.2-24.1a16.8 16.8 0 015 11.7 16.9 16.9 0 0123.5 0 16.9 16.9 0 0116.6-16.7 16.8 16.8 0 01-4.8-11.7v-.1a16.7 16.7 0 014.7-11.8 16.9 16.9 0 01-16.7-16.5 16.9 16.9 0 01-23.4 0 16.9 16.9 0 01-16.6 16.7 16.9 16.9 0 010 23.5 16.8 16.8 0 0111.7 4.9z"/>
      <path class="cls-4" d="M824.7 500.2a40.5 40.5 0 11-40.5-40.5 40.5 40.5 0 0140.5 40.5z"/>
      <path class="cls-2" d="M803.7 392.2c-5.9-10.8-15.8-2.7-19.5-.1-3.6-2.6-13.5-10.7-19.4 0-8.2 15 13.6 28 19.5 31.2 5.8-3.2 27.6-16.1 19.4-31.1zM637.7 596.8h293.2v9.3H637.7z"/>
      <path class="cls-6" d="M906 595l1.6-14.7-1.4-.1-1.6 14.6a92 92 0 01-5.9 5.6l1 1c1.6-1.4 3.1-2.8 4.6-4.4l-.6 6.1 1.4.2.7-6.1c1.1 1.8 2.3 3.6 3.6 5.3l1.1-.8a70.4 70.4 0 01-4.5-6.8zM920.8 594.7l-2.4-14.5-1.4.3 2.4 14.4a88.4 88.4 0 01-4.1 7l1.2.8c1.2-1.8 2.2-3.7 3.3-5.5l1 6 1.4-.2-1-6c1.6 1.4 3.2 2.8 5 4l.8-1a110 110 0 01-6.2-5.3z"/>
      <path class="cls-2" d="M971.5 537l-23.7 20.6c-11.8-16-36.7-39.3-73-19.4 0 0 3 73.8 80.8 32 5.2-2.8 21-10.8 21-10.8z"/>
      <path class="cls-6" d="M867.3 512.8l-11.5 1.9 8.7 6.4 2.8-8.3z"/>
      <path class="cls-6" d="M870.2 511.5l-11-4 4.4 10 6.6-6z"/>
      <path class="cls-2" d="M907.7 523.3a23 23 0 11-23-23 23 23 0 0123 23z"/>
      <path class="cls-6" d="M877.2 514a3.4 3.4 0 11-3.4-3.4 3.4 3.4 0 013.4 3.4z"/>
      <path class="cls-8" d="M873.9 513.4a1.1 1.1 0 11-1.1-1.2 1.1 1.1 0 011 1.2z"/>
      <path class="cls-9" d="M903.2 543s6.2 36.5 41.8 21.3c-8.5-14.1-22.8-20.8-41.8-21.3z"/>
      <path class="cls-6" d="M686.5 397l-3.2-14.4 1.4-.3 3.2 14.3c2 1.7 4.2 3.4 6.5 5l-.8 1.1a93.3 93.3 0 01-5.2-3.8l1.4 6-1.4.3-1.4-6-3 5.7-1.2-.7c1.3-2.4 2.6-4.8 3.7-7.3zM671.7 398.4l.8-14.7 1.4.1-.8 14.7a91 91 0 005 6.5l-1.2.9a96.1 96.1 0 01-3.9-5.1l-.3 6h-1.5l.4-6.1a97.5 97.5 0 01-4.5 4.6l-1-1c2-1.9 3.9-3.9 5.6-6z"/>
      <path class="cls-9" d="M614.4 342.8l24.7 19.4c11-16.6 34.8-41 71.9-22.8 0 0 .5 73.9-79.2 35.8-5.3-2.6-21.4-9.9-21.4-9.9z"/>
      <path class="cls-6" d="M726.2 327.6l7.6 8.8-10.8-.5 3.2-8.3z"/>
      <path class="cls-6" d="M724.8 324.9l11 3.9-9.7 4.8-1.3-8.7z"/>
      <path class="cls-9" d="M688.3 310.1a23 23 0 1032.3-3.1 23 23 0 00-32.3 3.1z"/>
      <path class="cls-6" d="M717.9 322a3.7 3.7 0 105.2-.5 3.7 3.7 0 00-5.2.5z"/>
      <path class="cls-8" d="M721.5 323.8a1.1 1.1 0 101.6-.2 1.1 1.1 0 00-1.6.2z"/>
      <path class="cls-2" d="M686.8 348.6s-28.3 23.8-45.7-10.8c15.6-5.3 30.8-1 45.7 10.8z"/>
    </g>
    <g id="snail">
      <path class="cls-12" d="M615.6 621.8a2.6 2.6 0 00-2.6 4.4 123.6 123.6 0 01-6.7 13l4.4 1.9c.7-4.7 2.4-9.3 4-14.3a2.6 2.6 0 001-5zM598.5 639.4a122.7 122.7 0 01-6.8-13.3 2.6 2.6 0 10-1.7.6c1.6 5.1 3.3 9.8 4 14.5z"/>
      <path class="cls-7" d="M758.2 701.1s-115.8 14.2-125.6-7.5-.3-62.8-34.7-58.4c-25.3 3.7-17 72 1.4 86.9 13 10.6 40.3 13 67 13.1 37.4 0 76.4-5 91.9-34.1z"/>
      <path class="cls-8" d="M599.5 653.7a6.2 6.2 0 11-6.2-6.2 6.2 6.2 0 016.2 6.2z"/>
      <path class="cls-12" d="M593.3 653.4a2.2 2.2 0 11-2.2-2.2 2.2 2.2 0 012.2 2.2z"/>
      <path class="cls-8" d="M615.2 653.7a6.2 6.2 0 11-6.2-6.2 6.2 6.2 0 016.2 6.2z"/>
      <path class="cls-12" d="M609 653.4a2.2 2.2 0 11-2.2-2.2 2.2 2.2 0 012.2 2.2zM601 668.4a9.5 9.5 0 01-4.4-1.2.7.7 0 01.7-1.1c.2.1 5.1 3 8.5-1.7a.7.7 0 111 .8 7 7 0 01-5.8 3.2z"/>
      <path class="cls-9" d="M737 686.3a53.4 53.4 0 00-53.3-53.4c-36.9 0-61.4 32.3-49.7 67.3 11.5 34.4 58.9 28.7 58.9 28.7 22.7-1.3 44.2-19.9 44.2-42.6z"/>
      <path class="cls-8" d="M699.3 706a26.9 26.9 0 008.8-4.3 19.4 19.4 0 006.3-8.4 21.3 21.3 0 001-10.8 28.6 28.6 0 00-12.3-19 31.8 31.8 0 00-11.2-4.8 37.1 37.1 0 00-12.4-.6 26.3 26.3 0 00-12 5 39 39 0 00-9.2 9.3 46.7 46.7 0 00-6 12 37.5 37.5 0 00-2 13.5 34.7 34.7 0 0012 24.6 37 37 0 008.2 5.5 82.4 82.4 0 009.9 1.1 38 38 0 01-16.6-8.2 32.5 32.5 0 01-11.3-23 35.4 35.4 0 012-12.8 44 44 0 015.7-11.3 37 37 0 018.6-8.9 24 24 0 0111-4.5 32 32 0 0122 4.9 26.6 26.6 0 0111.6 17.5 19.3 19.3 0 01-.9 9.9 17.4 17.4 0 01-5.6 7.5 24.9 24.9 0 01-8.2 4.2 30.6 30.6 0 01-4.3 1 17.3 17.3 0 01-4.2.2 14.7 14.7 0 01-12-8.6 14.1 14.1 0 01-1.3-6.6 11.6 11.6 0 012-5.8 11.8 11.8 0 018.9-5.1 9.5 9.5 0 017.1 2.6 10 10 0 012.6 4.1l.5 1.7a3.4 3.4 0 00-.1-1.8 9.6 9.6 0 00-2.5-4.5 10.2 10.2 0 00-7.7-3.1 13 13 0 00-12.3 11.8 15.5 15.5 0 001.3 7.4 16.3 16.3 0 0013.3 9.5 18.4 18.4 0 004.6-.1 30 30 0 004.7-1z"/>
    </g>
    <g id="fence">
      <path class="cls-3" d="M22.8 834.4h479.4v19H22.8zM22.8 908.6h479.4v19H22.8z"/>
      <path class="cls-13" d="M240.3 813l21.3-25.6 21.3 25.6v145.1h-42.6v-145z"/>
      <path class="cls-2" d="M293.7 813l21.4-25.6 21.3 25.6v145.1h-42.7v-145z"/>
      <path class="cls-13" d="M347.2 813l21.4-25.6 21.3 25.6v145.1h-42.7v-145z"/>
      <path class="cls-2" d="M400.7 813l21.4-25.6 21.3 25.6v145.1h-42.7v-145z"/>
      <path class="cls-13" d="M454.2 813l21.4-25.6 21.3 25.6v145.1h-42.7v-145zM28 813l21.4-25.6L70.7 813v145.1H28v-145z"/>
      <path class="cls-2" d="M81.5 813l21.4-25.6 21.3 25.6v145.1H81.5v-145z"/>
      <path class="cls-13" d="M135 813l21.4-25.6 21.3 25.6v145.1H135v-145z"/>
      <path class="cls-2" d="M188.5 813l21.4-25.6 21.3 25.6v145.1h-42.7v-145z"/>
      <path class="cls-14" d="M265 845.2a3.9 3.9 0 11-1.7-5.2 3.9 3.9 0 011.7 5.2z"/>
      <path class="cls-15" d="M259.7 846.8a.6.6 0 01.2.1h.1l3.5-6.8-.2-.1h-.1z"/>
      <path class="cls-14" d="M263.8 914.2a3.9 3.9 0 11-5.4 1 3.9 3.9 0 015.4-1z"/>
      <path class="cls-15" d="M264.7 919.6l.1-.2-6.3-4.4v.1l-.2.1z"/>
      <path class="cls-14" d="M318.4 845.2a3.9 3.9 0 11-1.7-5.2 3.9 3.9 0 011.7 5.2z"/>
      <path class="cls-15" d="M313 846.8a.6.6 0 01.2.1h.2l3.4-6.8-.1-.1h-.1z"/>
      <path class="cls-14" d="M317.1 914.2a3.9 3.9 0 11-5.3 1 3.9 3.9 0 015.3-1z"/>
      <path class="cls-15" d="M318 919.6h.1v-.2L312 915l-.1.1-.1.1z"/>
      <path class="cls-14" d="M371.8 845.2a3.9 3.9 0 11-1.7-5.2 3.9 3.9 0 011.7 5.2z"/>
      <path class="cls-15" d="M366.5 846.8v.1h.2l3.5-6.8-.1-.1h-.2z"/>
      <path class="cls-14" d="M370.5 914.2a3.9 3.9 0 11-5.4 1 3.9 3.9 0 015.4-1z"/>
      <path class="cls-15" d="M371.4 919.6h.1v-.2l-6.3-4.4v.1l-.1.1z"/>
      <path class="cls-14" d="M425.1 845.2a3.9 3.9 0 11-1.7-5.2 3.9 3.9 0 011.7 5.2z"/>
      <path class="cls-15" d="M419.8 846.8l.2.1h.1l3.5-6.8a.6.6 0 00-.2-.1.6.6 0 00-.1 0z"/>
      <path class="cls-14" d="M423.9 914.2a3.9 3.9 0 11-5.4 1 3.9 3.9 0 015.4-1z"/>
      <path class="cls-15" d="M424.8 919.6a1 1 0 00.1-.2l-6.3-4.4v.1l-.2.1z"/>
      <path class="cls-14" d="M52.8 845.2a3.9 3.9 0 11-1.7-5.2 3.9 3.9 0 011.7 5.2z"/>
      <path class="cls-15" d="M47.5 846.8l.2.1 3.6-6.8a.6.6 0 00-.2-.1.6.6 0 00-.1 0z"/>
      <path class="cls-14" d="M51.6 914.2a3.9 3.9 0 11-5.4 1 3.9 3.9 0 015.4-1z"/>
      <path class="cls-15" d="M52.5 919.6l.1-.2-6.3-4.4v.1l-.2.1z"/>
      <path class="cls-14" d="M106.2 845.2a3.9 3.9 0 11-1.7-5.2 3.9 3.9 0 011.7 5.2z"/>
      <path class="cls-15" d="M100.9 846.8a1.1 1.1 0 01.1.1h.2l3.4-6.8-.1-.1h-.2z"/>
      <path class="cls-14" d="M105 914.2a3.9 3.9 0 11-5.4 1 3.9 3.9 0 015.4-1z"/>
      <path class="cls-15" d="M105.8 919.6h.1l.1-.2-6.3-4.4-.1.1-.1.1z"/>
      <path class="cls-14" d="M159.6 845.2a3.9 3.9 0 11-1.7-5.2 3.9 3.9 0 011.7 5.2z"/>
      <path class="cls-15" d="M154.3 846.8v.1h.2l3.5-6.8a.6.6 0 00-.1-.1.6.6 0 00-.2 0z"/>
      <path class="cls-14" d="M158.3 914.2a3.9 3.9 0 11-5.4 1 3.9 3.9 0 015.4-1z"/>
      <path class="cls-15" d="M159.2 919.6h.1v-.2L153 915a.9.9 0 000 .1.6.6 0 00-.2.1z"/>
      <path class="cls-14" d="M213 845.2a3.9 3.9 0 11-1.8-5.2 3.9 3.9 0 011.7 5.2z"/>
      <path class="cls-15" d="M207.6 846.8a.6.6 0 01.2.1h.1l3.5-6.8a1 1 0 00-.2-.1.8.8 0 00-.1 0z"/>
      <path class="cls-14" d="M211.7 914.2a3.9 3.9 0 11-5.4 1 3.9 3.9 0 015.4-1z"/>
      <path class="cls-15" d="M212.6 919.6a1 1 0 00.1-.2l-6.3-4.4a.9.9 0 000 .1l-.2.1z"/>
      <path class="cls-14" d="M478.5 845.2a3.9 3.9 0 11-1.7-5.2 3.9 3.9 0 011.7 5.2z"/>
      <path class="cls-15" d="M473.2 846.8l.1.1h.2l3.4-6.8v-.1h-.2z"/>
      <path class="cls-14" d="M477.3 914.2a3.9 3.9 0 11-5.4 1 3.9 3.9 0 015.4-1z"/>
      <path class="cls-15" d="M478.1 919.6h.1l.1-.2-6.3-4.4-.1.1v.1z"/>
    </g>
    <g id="boots">
      <path class="cls-9" d="M733.1 859.2c1.5-18.9 1-34.6-3-56.2a439.1 439.1 0 01-58.9.7c4.8 25 7.5 47 9.4 66.1s-1 35.6-7.3 49c-5.8 12.4-15 14.6-24.2 15.2s-18.3-.1-24.6 6.8-4.9 17-4.8 17q5.8.8 11.7 1.3V958l10.8.9v1.3l8.2.6v-1.3l10.8.6v1.3l8.2.4v-1.3l10.8.3v1.3l8.3.1v-1.3h8.9v1.3l6.2-.1v-3.4c4.5 0 11-.2 15.7-.4l.1 3.4 6.3-.4V960l8.8-.7v1.3l8-.6c.7-11-1.6-24.9-4.6-34-12.2-37.1-5.6-56.7-4.8-66.7z"/>
      <path class="cls-8" d="M676.4 946.5a2.6 2.6 0 00-1.1 0 2.8 2.8 0 101.1 0zM680.2 848.5a2.8 2.8 0 00-2.2-2.8c.1 1.8.3 3.6.6 5.3a2.8 2.8 0 001.6-2.5zM678.6 812.1a2.5 2.5 0 00-.5 0 2.1 2.1 0 00-.6 0 2.8 2.8 0 101.1 0zM677.7 834.4a2.8 2.8 0 00.7-5.4 3.2 3.2 0 00-1.2 0 2.7 2.7 0 00-1.5.8l.6 4.3a2.7 2.7 0 001.4.3zM685.2 887.8a2.8 2.8 0 102.7 2.8 2.8 2.8 0 00-2.7-2.8zM672 807.8a2.8 2.8 0 00.4-1.4 2.8 2.8 0 00-1.1-2.3l.7 3.7zM676.7 929.7a2.5 2.5 0 00-.6 0 2.6 2.6 0 00-.5 0 2.8 2.8 0 101 0zM676.3 918.4a2.8 2.8 0 00.7-5.5 3.4 3.4 0 00-.6 0 2.6 2.6 0 00-.5 0h-.1L674 917a2.8 2.8 0 002.2 1.3zM686 837.4a2.8 2.8 0 102.8 2.8 2.8 2.8 0 00-2.8-2.8zM727 930.5a2.6 2.6 0 00-1 0 2.8 2.8 0 101 0zM695.1 829.2a2.5 2.5 0 00-.5 0 3.6 3.6 0 00-.6 0 2.8 2.8 0 101.1 0zM695.4 812.4a3.4 3.4 0 00-.5 0 2.6 2.6 0 00-.6 0 2.8 2.8 0 101.1 0zM726.8 947.4a2.5 2.5 0 00-.6-.1 3.5 3.5 0 00-.5 0 2.8 2.8 0 101.1 0zM685.8 854.2a2.8 2.8 0 102.7 2.8 2.8 2.8 0 00-2.7-2.8zM685.5 871a2.8 2.8 0 102.7 2.8 2.8 2.8 0 00-2.7-2.8zM685 904.6a2.8 2.8 0 102.7 2.8 2.8 2.8 0 00-2.7-2.8zM695.4 949.6a2.8 2.8 0 00-2.2-2.8 2 2 0 00-.5 0 2.7 2.7 0 00-.6 0 2.8 2.8 0 103.3 2.7zM694.6 862.8a2.9 2.9 0 00-1.1 0 2.8 2.8 0 103.3 2.8 2.8 2.8 0 00-2.2-2.8zM659.6 946.2a2.5 2.5 0 00-.5 0 2 2 0 00-.6 0 2.8 2.8 0 103.3 2.8 2.8 2.8 0 00-2.2-2.8zM659.3 934.9a2.8 2.8 0 002.8-2.7 2.5 2.5 0 00-.2-1 26.7 26.7 0 01-5.2 1.8 2.8 2.8 0 002.5 1.9zM653.5 940.5a2.8 2.8 0 10-2.8 2.7 2.8 2.8 0 002.8-2.7zM670.3 940.7a2.8 2.8 0 10-2.8 2.8 2.8 2.8 0 002.8-2.8zM693.8 913.2a2.7 2.7 0 00-.6 0 2.8 2.8 0 100 5.5 2.8 2.8 0 00.6-5.5zM634 943a2.8 2.8 0 10-2.8-2.9 2.8 2.8 0 002.7 2.8zM625.4 951.2a2.8 2.8 0 00.6-5.5 2.6 2.6 0 00-1 0 2.8 2.8 0 00.4 5.5zM642.3 945.9a2.6 2.6 0 00-.6 0 2.8 2.8 0 101.1 0 2.6 2.6 0 00-.5 0zM684.4 938.2a2.8 2.8 0 102.7 2.8 2.8 2.8 0 00-2.7-2.8zM686.3 820.6a2.8 2.8 0 102.8 2.8 2.8 2.8 0 00-2.8-2.8zM683.8 806.5a2.8 2.8 0 104.3-2.2h-3a2.8 2.8 0 00-1.3 2.3zM684.7 921.4a2.8 2.8 0 102.7 2.8 2.8 2.8 0 00-2.7-2.8zM694.9 846a2.6 2.6 0 00-1.1 0 2.8 2.8 0 101 0zM694 896.4a2.6 2.6 0 00-.6 0 3.4 3.4 0 00-.5 0 2.8 2.8 0 101.1 0zM727.4 913.8a2.1 2.1 0 00-.6-.1 2.8 2.8 0 10.6 0zM693.5 930a2.6 2.6 0 00-1.1 0 2.8 2.8 0 101 0zM694.3 879.6a2.6 2.6 0 00-.5 0 2.7 2.7 0 00-.6 0 2.8 2.8 0 101.1 0zM711.4 863a3.2 3.2 0 00-1.1 0 2.8 2.8 0 00.4 5.6 2.8 2.8 0 00.7-5.5zM712.2 812.7a2.5 2.5 0 00-.5 0 2.7 2.7 0 00-.6 0 2.8 2.8 0 101.1 0zM727.6 897a3.4 3.4 0 00-.5 0 2.6 2.6 0 00-.6 0 2.8 2.8 0 101.1 0zM712 829.5a3.2 3.2 0 00-1.2 0 2.8 2.8 0 101.1 0zM701.5 921.7a2.8 2.8 0 102.7 2.8 2.8 2.8 0 00-2.7-2.8zM711.7 846.3a2.4 2.4 0 00-.6 0 3.5 3.5 0 00-.6 0 2.8 2.8 0 101.2 0zM710.8 896.7a2.6 2.6 0 00-.5 0 2.7 2.7 0 00-.6 0 2.8 2.8 0 101.1 0zM701.2 938.5a2.8 2.8 0 102.7 2.8 2.8 2.8 0 00-2.7-2.8zM711.1 879.9a3.3 3.3 0 00-.6 0 3.4 3.4 0 00-.5 0 2.8 2.8 0 101.1 0zM700.6 806.8a2.8 2.8 0 103.7-2.5h-2a2.8 2.8 0 00-1.7 2.5zM703.1 820.9a2.8 2.8 0 102.7 2.8 2.8 2.8 0 00-2.7-2.8zM720.7 941.6a2.8 2.8 0 10-2.8 2.7 2.8 2.8 0 002.8-2.7zM737.5 941.8a2.8 2.8 0 10-2.8 2.8 2.8 2.8 0 002.8-2.8zM702.8 837.7a2.8 2.8 0 102.8 2.8 2.8 2.8 0 00-2.8-2.8zM702.3 871.3a2.8 2.8 0 102.7 2.8 2.8 2.8 0 00-2.7-2.8zM702 888a2.8 2.8 0 102.7 3 2.8 2.8 0 00-2.7-3zM702.6 854.5a2.8 2.8 0 102.7 2.8 2.8 2.8 0 00-2.7-2.8zM701.7 904.9a2.8 2.8 0 102.8 2.8 2.8 2.8 0 00-2.8-2.8zM710.6 913.5a3.4 3.4 0 00-.6 0 2.6 2.6 0 00-.6 0 2.8 2.8 0 101.2 0zM733 927.5a2.8 2.8 0 10-2.8-2.8 2.8 2.8 0 002.7 2.8zM728.5 813a3.4 3.4 0 00-.6 0 2.8 2.8 0 00.5 5.5 2.8 2.8 0 002.2-1l-.5-4a2.8 2.8 0 00-1-.5 3.4 3.4 0 00-.6 0zM728 835.3a2.8 2.8 0 00.7-5.5 2.5 2.5 0 00-.5 0 3.5 3.5 0 00-.6 0 2.8 2.8 0 00.5 5.4zM718.5 905.1a2.8 2.8 0 102.8 2.9 2.8 2.8 0 00-2.8-2.9zM727.8 852a2.8 2.8 0 00.7-5.4 2.6 2.6 0 00-1.2 0 2.8 2.8 0 00.5 5.5zM727.3 885.6a2.8 2.8 0 001.6-.4v-4.6a2.8 2.8 0 00-1-.4 3.2 3.2 0 00-1 0 2.8 2.8 0 00.4 5.5zM718.3 922a2.8 2.8 0 102.7 2.8 2.8 2.8 0 00-2.7-2.8zM728.2 863.4a3.3 3.3 0 00-.6-.1 2.6 2.6 0 00-.5 0 2.8 2.8 0 101 0zM710 947a2.6 2.6 0 00-1.1 0 2.8 2.8 0 101.1 0zM720.2 804.4a2.8 2.8 0 00-.1 5.5 2.8 2.8 0 100-5.5zM720 821.2a2.8 2.8 0 102.6 2.8 2.8 2.8 0 00-2.7-2.8zM710.3 930.3a2.1 2.1 0 00-.6 0 2.8 2.8 0 00-2.8 2.6 2.8 2.8 0 103.4-2.6zM719.4 854.8a2.8 2.8 0 102.7 2.8 2.8 2.8 0 00-2.7-2.8zM719 871.6a2.8 2.8 0 102.8 2.8 2.8 2.8 0 00-2.7-2.8zM719.6 838a2.8 2.8 0 102.8 2.8 2.8 2.8 0 00-2.8-2.8zM718.8 888.4a2.8 2.8 0 102.7 2.8 2.8 2.8 0 00-2.7-2.9z"/>
      <path class="cls-2" d="M734.6 960.5l7.8-.6a83.1 83.1 0 00-.5-14.8l-2.7-.1c-9.8-.2-21.5 1-34.7 3.4a293 293 0 01-51.4 2.7c-11.6-.1-23-.7-33-1.6a25.6 25.6 0 00-.4 8.4q5.8.7 11.7 1.2V958l10.8 1v1.2l8.2.6v-1.3l10.8.6v1.3l8.2.4v-1.3l10.8.3v1.3l8.3.1v-1.3h8.9v1.3l6.2-.1v-3.4c4.5 0 11-.2 15.7-.4l.1 3.4 6.3-.4V960l8.8-.7zM670 801.2l2.9 19.5a391.1 391.1 0 0061.4-.4l-1.3-20.1c-22 1.4-42.9 1.7-63 1zM723.4 845c-.8-4.3-5-3.7-9.1-2 3.6-2.7 6.2-6 2.9-8.8s-6.2.4-8.3 4.4c1-4.4.9-8.7-3.5-8.7s-4.5 4.3-3.5 8.7c-2-4-4.9-7.2-8.2-4.4s-.7 6.1 2.9 8.9c-4.2-1.8-8.4-2.4-9.2 1.9s3.4 5.2 8 5c-4.4 1.3-8 3.6-5.8 7.4s6 1.7 9.3-1.3c-2.5 3.8-3.8 7.8.3 9.3s5.7-2.5 6.2-7c.6 4.5 2.2 8.4 6.3 7s2.7-5.5.3-9.3c3.3 3 7 5 9.2 1.3s-1.4-6-5.7-7.4c4.5.2 8.7-.7 8-5z"/>
      <path class="cls-8" d="M710 847.8a4.7 4.7 0 11-4.6-4.7 4.7 4.7 0 014.7 4.7z"/>
      <path class="cls-9" d="M646.5 817.6c1.5-18.9 1-34.6-3-56.2a440.8 440.8 0 01-58.9.7c4.8 25 7.5 47 9.4 66.1s-1 35.5-7.3 49c-5.8 12.4-15 14.6-24.3 15.2s-18.2-.1-24.5 6.8-4.9 17-4.8 17q5.8.8 11.6 1.3l.2-1.3q5.3.6 10.7 1l-.1 1.3 8.3.6v-1.3l10.8.7v1.3l8.2.3v-1.3l10.8.4v1.2l8.3.2v-1.3h8.9v1.2h6.2V917l15.7-.4.1 3.3 6.3-.4v-1.2l8.8-.7v1.2l8-.6c.7-10.9-1.6-24.9-4.6-34-12.3-37.1-5.6-56.7-4.8-66.7z"/>
      <path class="cls-8" d="M589.8 905a2.6 2.6 0 00-.6-.2 3.4 3.4 0 00-.5 0 2.8 2.8 0 101.1 0zM593.6 806.9a2.8 2.8 0 00-2.2-2.8h-.1l.7 5.3a2.8 2.8 0 001.6-2.5zM592 770.5a3.3 3.3 0 00-.6 0 3.7 3.7 0 00-.5 0 2.8 2.8 0 101.1 0zM591 792.8a2.8 2.8 0 00.7-5.5 5 5 0 00-.5 0 2.6 2.6 0 00-.6 0 2.7 2.7 0 00-1.5.9l.6 4.2a2.7 2.7 0 001.4.4zM598.6 846.2a2.8 2.8 0 102.7 2.8 2.8 2.8 0 00-2.7-2.8zM585.4 766.2a2.8 2.8 0 00.4-1.4 2.8 2.8 0 00-1.1-2.3l.7 3.7zM590 888.1a2.4 2.4 0 00-.5 0 3.6 3.6 0 00-.5 0 2.8 2.8 0 101 0zM589.7 876.8a2.8 2.8 0 00.7-5.5 2.6 2.6 0 00-1.2 0l-1.8 4.3a2.8 2.8 0 002.3 1.2zM599.4 795.8a2.8 2.8 0 102.8 2.8 2.8 2.8 0 00-2.8-2.8zM640.5 889a2.6 2.6 0 00-1.1 0 2.8 2.8 0 101 0zM608.5 787.6a2.5 2.5 0 00-.5 0 3.6 3.6 0 00-.6 0 2.8 2.8 0 101.1 0zM608.8 770.8a2.6 2.6 0 00-1.1 0 2.8 2.8 0 101.1 0zM640.2 905.7a2.6 2.6 0 00-.6 0 2.2 2.2 0 00-.5 0 2.8 2.8 0 101.1 0zM599.2 812.6a2.8 2.8 0 102.7 2.8 2.8 2.8 0 00-2.7-2.8zM598.9 829.4a2.8 2.8 0 102.7 2.8 2.8 2.8 0 00-2.7-2.8zM598.3 863a2.8 2.8 0 102.8 2.8 2.8 2.8 0 00-2.8-2.8zM608.8 908a2.8 2.8 0 00-2.2-2.8 2.5 2.5 0 00-.6 0 2.7 2.7 0 00-.5 0 2.8 2.8 0 103.3 2.8zM608 821.2a2.5 2.5 0 00-.6 0 2.6 2.6 0 00-.5 0 2.8 2.8 0 101.1 0zM573 904.6a3.6 3.6 0 00-.6 0 3.3 3.3 0 00-.5 0 2.8 2.8 0 101.1 0zM572.6 893.3a2.8 2.8 0 002.9-2.7 2.5 2.5 0 00-.2-1 26.7 26.7 0 01-5.2 1.8 2.8 2.8 0 002.5 1.9zM567 898.9a2.8 2.8 0 10-2.9 2.7 2.8 2.8 0 002.8-2.7zM583.7 899.1a2.8 2.8 0 10-2.8 2.8 2.8 2.8 0 002.8-2.8zM607.2 871.6a2.6 2.6 0 00-.6 0 2.7 2.7 0 00-.6 0 2.8 2.8 0 101.2 0zM547.3 901.3a2.8 2.8 0 00.1-5.5 2.8 2.8 0 100 5.5zM538.8 909.6a2.8 2.8 0 00.6-5.5 2.6 2.6 0 00-1.1 0 2.8 2.8 0 00.5 5.5zM555.7 904.3a2.6 2.6 0 00-.6 0 2.8 2.8 0 101.1 0 2.6 2.6 0 00-.5 0zM597.8 896.6a2.8 2.8 0 102.7 2.8 2.8 2.8 0 00-2.7-2.8zM599.7 779a2.8 2.8 0 102.7 2.8 2.8 2.8 0 00-2.7-2.8zM597.2 765a2.8 2.8 0 104.3-2.3h-3a2.8 2.8 0 00-1.3 2.3zM598 879.8a2.8 2.8 0 102.8 2.8 2.8 2.8 0 00-2.7-2.8zM608.3 804.4a3.4 3.4 0 00-.6 0 2.6 2.6 0 00-.6 0 2.8 2.8 0 101.2 0zM607.4 854.8a2.6 2.6 0 00-1 0 2.8 2.8 0 101 0zM640.8 872.1a2.6 2.6 0 00-.6 0 2.2 2.2 0 00-.6 0 2.8 2.8 0 101.1 0zM606.9 888.4a2.6 2.6 0 00-1.1 0 2.8 2.8 0 101 0zM607.7 838a2.6 2.6 0 00-.6 0 2.7 2.7 0 00-.5 0 2.8 2.8 0 101.1 0zM624.8 821.5a3.2 3.2 0 00-1.1 0 2.8 2.8 0 101 0zM625.6 771.1a2.5 2.5 0 00-.6 0 2.7 2.7 0 00-.5 0 2.8 2.8 0 101.1 0zM641 855.4a2.5 2.5 0 00-.6-.1 2.6 2.6 0 00-.5 0 2.8 2.8 0 101.1 0zM625.3 787.9a3.4 3.4 0 00-.5 0 2.6 2.6 0 00-.6 0 2.8 2.8 0 101.1 0zM614.9 880a2.8 2.8 0 102.7 2.9 2.8 2.8 0 00-2.7-2.8zM625 804.7a2.4 2.4 0 00-.5 0 2.7 2.7 0 00-.6 0 2.8 2.8 0 101.1 0zM624.2 855a2.6 2.6 0 00-.5 0 2.7 2.7 0 00-.6 0 2.8 2.8 0 00.5 5.5 2.8 2.8 0 00.6-5.5zM614.6 896.9a2.8 2.8 0 102.7 2.8 2.8 2.8 0 00-2.7-2.8zM624.5 838.3a2.5 2.5 0 00-.6 0 3.5 3.5 0 00-.5 0 2.8 2.8 0 101.1 0zM614 765.2a2.8 2.8 0 103.7-2.5h-2a2.8 2.8 0 00-1.7 2.5zM616.5 779.3a2.8 2.8 0 102.7 2.8 2.8 2.8 0 00-2.7-2.8zM634.1 900a2.8 2.8 0 10-2.8 2.7 2.8 2.8 0 002.8-2.7zM651 900.2a2.8 2.8 0 10-3 2.8 2.8 2.8 0 003-2.8zM616.2 796a2.8 2.8 0 102.8 3 2.8 2.8 0 00-2.8-3zM615.7 829.7a2.8 2.8 0 102.7 2.8 2.8 2.8 0 00-2.7-2.8zM615.4 846.5a2.8 2.8 0 102.7 2.8 2.8 2.8 0 00-2.7-2.8zM616 812.9a2.8 2.8 0 102.7 2.8 2.8 2.8 0 00-2.7-2.8zM615.1 863.3a2.8 2.8 0 102.8 2.8 2.8 2.8 0 00-2.8-2.8zM624 871.9a3.4 3.4 0 00-.6 0 2.6 2.6 0 00-.5 0 2.8 2.8 0 101.1 0zM646.3 885.9a2.8 2.8 0 10-2.7-2.8 2.8 2.8 0 002.7 2.8zM641.9 771.3a2.6 2.6 0 00-.6 0 2.8 2.8 0 102.7 4.5l-.6-4a2.6 2.6 0 00-1-.4 2.1 2.1 0 00-.5 0zM641.5 793.7a2.8 2.8 0 00.6-5.5 2.4 2.4 0 00-.5 0 3.6 3.6 0 00-.6 0 2.8 2.8 0 00.5 5.4zM632 863.5a2.8 2.8 0 102.7 2.9 2.8 2.8 0 00-2.8-2.9zM641.2 810.5a2.8 2.8 0 00.7-5.5 2.6 2.6 0 00-.6-.1 3.4 3.4 0 00-.6 0 2.8 2.8 0 00.5 5.6zM640.7 844a2.8 2.8 0 001.5-.4l.1-4.6a2.8 2.8 0 00-1-.4 2.6 2.6 0 00-.5-.1 2.7 2.7 0 00-.6 0 2.8 2.8 0 00.5 5.5zM631.6 880.4a2.8 2.8 0 102.8 2.8 2.8 2.8 0 00-2.8-2.9zM641.6 821.8a2.5 2.5 0 00-.6-.1 2.6 2.6 0 00-.5 0 2.8 2.8 0 101 0zM623.4 905.5a2.6 2.6 0 00-.6-.1 3.4 3.4 0 00-.5 0 2.8 2.8 0 101.1 0zM633.6 762.8a2.8 2.8 0 102.7 2.8 2.8 2.8 0 00-2.7-2.8zM633.3 779.6a2.8 2.8 0 102.7 2.8 2.8 2.8 0 00-2.7-2.8zM623.7 888.7a2.6 2.6 0 00-.6 0 2.2 2.2 0 00-.6 0 2.8 2.8 0 101.2 0zM632.8 813.2a2.8 2.8 0 102.7 2.8 2.8 2.8 0 00-2.8-2.8zM632.5 830a2.8 2.8 0 102.7 2.8 2.8 2.8 0 00-2.7-2.8zM633 796.4a2.8 2.8 0 102.7 2.8 2.8 2.8 0 00-2.7-2.8zM632.2 846.8a2.8 2.8 0 102.7 2.8 2.8 2.8 0 00-2.7-2.9z"/>
      <path class="cls-2" d="M648 919l7.8-.7a82.2 82.2 0 00-.5-14.8l-2.6-.1a181 181 0 00-34.7 3.4c-11.4 2.1-30.1 3.1-51.5 2.7-11.6-.1-23-.7-33-1.6a25.6 25.6 0 00-.4 8.4q5.8.7 11.7 1.2l.1-1.3 10.7 1v1.3l8.2.6v-1.3l10.8.7v1.3l8.2.3v-1.3l10.9.4v1.2l8.3.2v-1.3h8.8v1.2h6.2V917l15.7-.4.1 3.3 6.4-.4v-1.2l8.7-.7zM583.4 759.6l2.9 19.5a391.1 391.1 0 0061.4-.4l-1.3-20.1c-22 1.4-42.9 1.7-63 1zM636.8 803.4c-.8-4.3-5-3.7-9.2-2 3.7-2.7 6.3-6 3-8.8s-6.2.3-8.3 4.4c1-4.5.9-8.7-3.5-8.7s-4.5 4.3-3.5 8.7c-2-4-4.9-7.2-8.2-4.4s-.8 6.1 2.9 8.8c-4.2-1.7-8.4-2.3-9.2 2s3.4 5.2 8 5c-4.4 1.3-8 3.6-5.8 7.4s6 1.7 9.2-1.4c-2.4 3.8-3.7 7.9.4 9.4s5.7-2.5 6.2-7c.6 4.5 2.2 8.4 6.3 7s2.7-5.6.3-9.4c3.3 3.1 7 5.1 9.2 1.4s-1.4-6-5.7-7.4c4.5.2 8.7-.7 7.9-5z"/>
      <path class="cls-8" d="M623.5 806.2a4.7 4.7 0 11-4.7-4.7 4.7 4.7 0 014.7 4.7z"/>
    </g>
    <g id="sun">
      <path class="cls-7" d="M576.1 153.4l-47.6 14.2 42.3 26.1-49.7 1.1 34.2 35.8-48-12.2 24 43.2-43.3-24 12.2 48-35.7-34.2-1.1 49.7-26.2-42.2-14.1 47.6-14.2-47.6-26.1 42.2-1.1-49.7-35.8 34.2 12.2-48-43.3 24 24-43.2-48 12.2 34.2-35.8-49.6-1 42.2-26.2-47.6-14.2 47.6-14.2-42.2-26L325 112 291 76.2l47.9 12.3-24-43.3 43.3 24-12.2-48 35.8 34.2 1-49.7L409 48 423 .3 437.2 48l26.2-42.3 1 49.7 35.8-34.2-12.2 48 43.3-24-24 43.3 48-12.3L521 112l49.7 1.1-42.3 26.2 47.6 14.1z"/>
      <path class="cls-16" d="M412.7 253a18 18 0 01-16.2-17.5 18 18 0 01-31.1-18 18 18 0 01-21.1-29 18 18 0 01-7.5-35 18 18 0 017.4-35 18 18 0 0121-29 18 18 0 0131-18 18 18 0 0135.7-3.9 18 18 0 0134 11 18 18 0 0126.8 24 18 18 0 0114.6 32.6 18.1 18.1 0 0115.8 17.9v.3a18 18 0 01-15.7 18 18 18 0 01-14.6 32.7 18 18 0 01-26.6 24 18 18 0 01-34.1 11 18 18 0 01-17.5 13.9 17 17 0 01-2 0zm3.7-36a18 18 0 0114.5 10.1 18 18 0 0129.3-9.5A18 18 0 01483 197a18 18 0 0112.5-28.1 18 18 0 01-8.6-15.5 18 18 0 018.6-15.6 18 18 0 01-12.6-28.1 18 18 0 01-23-20.6 18 18 0 01-29.3-9.5A18 18 0 01400 83a18 18 0 01-26.7 15.5 18.1 18.1 0 01-18 25 18 18 0 01-6.4 30.1 18 18 0 016.4 30.2 18 18 0 0118.1 24.9 18 18 0 0126.8 15.4 18 18 0 0114.3-7h1.9z"/>
      <path class="cls-7" d="M505 153.4a82 82 0 11-82-82 82 82 0 0182 82z"/>
      <path class="cls-16" d="M389 161.6a15 15 0 11-15-14.9 15 15 0 0115 15zM486.6 161.6a15 15 0 11-15-14.9 15 15 0 0115 15z"/>
      <path class="cls-6" d="M464.7 126.1a23.3 23.3 0 0117.7 8.2l-3.5 3a18.7 18.7 0 00-28.4 0l-3.6-3a23.3 23.3 0 0117.8-8.2zM381 126.1a23.3 23.3 0 0117.8 8.2l-3.5 3a18.7 18.7 0 00-28.4 0l-3.6-3a23.3 23.3 0 0117.8-8.2zM422.9 195.3a39.2 39.2 0 01-23.1-7.6l2.7-3.7a34.6 34.6 0 0040.8 0l2.7 3.8a39.2 39.2 0 01-23.1 7.5z"/>
    </g>
    <g id="frog">
      <path class="cls-1" d="M157.7 245.5c-1.8 0-8.1 1.4-17 2.3 0 10.6 1.6 19.5 4.2 29.9a11 11 0 016.7-2.7 13.1 13.1 0 017.6 1.6c1.3-1.6 4-2.8 7.1-3a13.8 13.8 0 016.6 1c-3.3-9.8-9.5-20.7-15.3-29zM114.5 245.5c1.8 0 8.1 1.4 17 2.3 0 10.6-1.7 19.5-4.3 29.9a10.9 10.9 0 00-6.7-2.7 13.1 13.1 0 00-7.5 1.6c-1.4-1.6-4-2.8-7.2-3a13.7 13.7 0 00-6.6 1c3.3-9.8 9.5-20.7 15.3-29zM46.3 166.4c-33.7 7.1 27.3 75.4 30 78.8-8.2-.3-18.9.2-30.2 1a6.3 6.3 0 01.4 10.7 6.8 6.8 0 013.9 5.6 6.5 6.5 0 01-2.1 5c14.3-1.7 29-5.5 41.4-9 1.6-6.6-7.4-99.8-43.5-92.1zM226 166.4c33.6 7.1-27.5 75.4-30 78.8 8.1-.3 18.8.2 30 1a6.3 6.3 0 00-.3 10.7 6.7 6.7 0 00-3.8 5.6 6.4 6.4 0 002 5c-14.3-1.7-29-5.5-41.4-9-1.6-6.6 7.4-99.8 43.4-92.1z"/>
      <path class="cls-17" d="M207.6 196.8c0 36.2-32 57.4-71.5 57.4S64.5 233 64.5 196.8s32-65.5 71.6-65.5 71.5 29.3 71.5 65.5z"/>
      <path class="cls-7" d="M136 185.8c-28.8 0-54 13.8-66.5 34 10.5 22 36.3 34.4 66.6 34.4s56-12.4 66.5-34.5c-12.5-20.1-37.6-33.9-66.5-33.9z"/>
      <path class="cls-1" d="M136 166.8c21.5 0 41.2-3.7 56.6-10.2a74 74 0 00-56.5-25.3 74 74 0 00-56.5 25.3 149.1 149.1 0 0056.5 10.2z"/>
      <path class="cls-17" d="M224 121.5c0 27.4-39.3 43-88 43s-88-15.6-88-43S87.6 63 136 63s88 31.3 88 58.6z"/>
      <path class="cls-17" d="M120.7 65.4c6.3 18-1.8 37.2-18.2 43s-34.7-4-41-22 1.7-37.2 18-43 34.8 4 41.2 22z"/>
      <path class="cls-1" d="M112.2 76.6a20.1 20.1 0 11-20.1-20.1 20.1 20.1 0 0120.1 20.1z"/>
      <path class="cls-18" d="M109.3 76.6a18 18 0 11-18-18 18 18 0 0118 18z"/>
      <path class="cls-8" d="M88.7 72a4.7 4.7 0 11-4.7-4.7 4.7 4.7 0 014.7 4.7z"/>
      <path class="cls-2" d="M81 118.5a11 11 0 11-11-11 11 11 0 0111 11zM213.2 118.5a11 11 0 11-11-11 11 11 0 0111 11z"/>
      <path class="cls-18" d="M136 132.6a45.6 45.6 0 01-23.2-6.3l1-1.8a43.6 43.6 0 0044.4 0l1 1.8a45.6 45.6 0 01-23.1 6.3zM129.4 106.8a2 2 0 11-2-2 2 2 0 012 2zM146.7 106.8a2 2 0 11-2-2 2 2 0 012 2z"/>
      <path class="cls-17" d="M151.5 65.4c-6.4 18 1.8 37.2 18.1 43s34.8-4 41.2-22-1.8-37.2-18.2-43-34.7 4-41.1 22z"/>
      <path class="cls-1" d="M201.8 76.6a20.1 20.1 0 11-20.1-20.1 20.1 20.1 0 0120.1 20.1z"/>
      <path class="cls-18" d="M198.8 76.6a18 18 0 11-18-18 18 18 0 0118 18z"/>
      <path class="cls-8" d="M178.3 72a4.7 4.7 0 11-4.7-4.7 4.7 4.7 0 014.7 4.7z"/>
    </g>
    <g id="clouds">
      <path class="cls-9" d="M812.5 128.9c-2.9 0-6.1-6.4 0-11 6.2 4.6 3 11 0 11z"/>
      <path class="cls-7" d="M842.4 128.9c-2.9 0-6.1-6.4 0-11 6.2 4.6 3 11 0 11z"/>
      <path class="cls-2" d="M872.3 128.9c-2.9 0-6.1-6.4 0-11 6.2 4.6 3 11 0 11z"/>
      <path class="cls-9" d="M902.2 128.9c-2.9 0-6.1-6.4 0-11 6.2 4.6 3 11 0 11z"/>
      <path class="cls-7" d="M932.1 128.9c-2.9 0-6.1-6.4 0-11 6.2 4.6 2.9 11 0 11z"/>
      <path class="cls-2" d="M827.5 157.7c-3 0-6.2-6.4 0-11 6.1 4.6 2.9 11 0 11z"/>
      <path class="cls-9" d="M857.4 157.7c-3 0-6.2-6.4 0-11 6.1 4.6 2.9 11 0 11z"/>
      <path class="cls-7" d="M887.3 157.7c-3 0-6.2-6.4 0-11 6.1 4.6 2.9 11 0 11z"/>
      <path class="cls-2" d="M917.2 157.7c-3 0-6.2-6.4 0-11 6.1 4.6 2.9 11 0 11z"/>
      <path class="cls-9" d="M970 65a29.4 29.4 0 00-29.1-19.4 39.5 39.5 0 00-73.7-25.2 32.4 32.4 0 00-54.9 20.7 32.4 32.4 0 10-9.4 63.3h142.5v-.2a29.1 29.1 0 006.8-1.5A29.4 29.4 0 00970 65z"/>
      <path class="cls-8" d="M827.3 72.7a1 1 0 00-.3 0 1.3 1.3 0 10.5 0 1 1 0 00-.2 0zM836.6 25.7a1.3 1.3 0 101.4 1.4 1.3 1.3 0 00-1.4-1.4zM827.3 19a1.3 1.3 0 001.3-1.3 1.3 1.3 0 00-1-1.3h-.3c-.5.2-.8.5-1.2.8a1.3 1.3 0 00-.2.5 1.3 1.3 0 001.4 1.3zM827.5 54h-.5a1.3 1.3 0 00-1 1.2 1.3 1.3 0 101.5-1.3zM836.6 44.5a1.3 1.3 0 101.4 1.3 1.3 1.3 0 00-1.4-1.3zM836.6 100.9a1.3 1.3 0 101.4 1.3 1.3 1.3 0 00-1.4-1.3zM817.9 82.1a1.3 1.3 0 101.3 1.3 1.3 1.3 0 00-1.3-1.3zM817.9 44.5a1.3 1.3 0 101.3 1.3 1.3 1.3 0 00-1.3-1.3zM817.9 63.3a1.3 1.3 0 101.3 1.3 1.3 1.3 0 00-1.3-1.3zM836.6 82.1a1.3 1.3 0 101.4 1.3 1.3 1.3 0 00-1.4-1.3zM817.9 103.5a1.3 1.3 0 10-1.3-1.3 1.3 1.3 0 001.3 1.3zM855.5 82.1a1.3 1.3 0 101.3 1.3 1.3 1.3 0 00-1.3-1.3zM855.5 100.9a1.3 1.3 0 101.3 1.3 1.3 1.3 0 00-1.3-1.3zM855.5 44.5a1.3 1.3 0 101.3 1.3 1.3 1.3 0 00-1.3-1.3zM855.5 63.3a1.3 1.3 0 101.3 1.3 1.3 1.3 0 00-1.3-1.3zM827.5 35.1h-.5a1.3 1.3 0 00-1 1.3 1.3 1.3 0 101.5-1.3zM827.3 94.1a1.3 1.3 0 00.2-2.6 1.1 1.1 0 00-.5 0 1.3 1.3 0 00.3 2.6zM865.1 35.1h-.5a1.3 1.3 0 00-1 1.3 1.3 1.3 0 102.6 0 1.3 1.3 0 00-1-1.3zM865.1 72.7h-.3a1 1 0 00-.2 0 1.3 1.3 0 10.5 0zM865.1 54h-.5a1.3 1.3 0 00-1 1.2 1.3 1.3 0 102.6 0 1.3 1.3 0 00-1-1.3zM864.8 91.5a1 1 0 00-.2 0 1.3 1.3 0 10.5 0zM789.7 72.7h-.3a1.3 1.3 0 10.5 0 1 1 0 00-.2 0zM949.4 63.3a1.3 1.3 0 101.3 1.3 1.3 1.3 0 00-1.3-1.3zM949.4 84.7a1.3 1.3 0 10-1.3-1.3 1.3 1.3 0 001.3 1.3zM817.9 28.4a1.3 1.3 0 100-2.7 1.8 1.8 0 00-.3 0l-1 1.7a1.3 1.3 0 001.3 1zM772.2 74a1.3 1.3 0 00-1-1.3 1 1 0 00-.3 0 1.2 1.2 0 00-.3 0 1.3 1.3 0 00-.6.4l.1 2a1.3 1.3 0 002.1-1zM950.7 102.2a1.3 1.3 0 10-1.3 1.3l.6-.1a1.3 1.3 0 00.7-1.2zM958.8 75.3a1.3 1.3 0 00.3-2.6 1.1 1.1 0 00-.3 0h-.3a1.3 1.3 0 00.3 2.6zM966.9 64.6a1.3 1.3 0 101.3-1.3 1.3 1.3 0 00-1.3 1.3zM968.2 84.7a1.3 1.3 0 10-1.3-1.3 1.3 1.3 0 001.3 1.3zM959 54h-.5a1.3 1.3 0 10.6 0zM781.6 83.4a1.3 1.3 0 10-1.3 1.3 1.3 1.3 0 001.3-1.3zM958.8 94.1a1.3 1.3 0 00.3-2.6 1.1 1.1 0 00-.3 0h-.3a1.3 1.3 0 00.3 2.6zM789.7 94.1a1.3 1.3 0 00.2-2.6 1 1 0 00-.2 0h-.3a1.3 1.3 0 00.3 2.6zM808.7 72.7a1 1 0 00-.2 0 1.2 1.2 0 00-.3 0 1.3 1.3 0 10.5 0zM808.7 54h-.5a1.3 1.3 0 10.5 0zM780.3 63.3a1.3 1.3 0 101.3 1.3 1.3 1.3 0 00-1.3-1.3zM855.5 25.7a1.3 1.3 0 101.3 1.4 1.3 1.3 0 00-1.3-1.4zM808.5 91.5a1.2 1.2 0 00-.3 0 1.3 1.3 0 10.5 0 1 1 0 00-.2 0zM799 82.1a1.3 1.3 0 101.4 1.3 1.3 1.3 0 00-1.3-1.3zM799 100.9a1.3 1.3 0 101.4 1.3 1.3 1.3 0 00-1.3-1.3zM790 54h-.6a1.3 1.3 0 00-1 1.2A1.3 1.3 0 10790 54zM799 44.5a1.3 1.3 0 101.4 1.3 1.3 1.3 0 00-1.3-1.3zM799 63.3a1.3 1.3 0 101.4 1.3 1.3 1.3 0 00-1.3-1.3zM836.6 63.3a1.3 1.3 0 101.4 1.3 1.3 1.3 0 00-1.4-1.3zM893 82.1a1.3 1.3 0 101.3 1.3 1.3 1.3 0 00-1.3-1.3zM893 63.3a1.3 1.3 0 101.3 1.3 1.3 1.3 0 00-1.3-1.3zM893 100.9a1.3 1.3 0 101.3 1.3 1.3 1.3 0 00-1.3-1.3zM893 44.5a1.3 1.3 0 101.3 1.3 1.3 1.3 0 00-1.3-1.3zM893 7a1.3 1.3 0 101.3 1.3 1.3 1.3 0 00-1.3-1.4zM902.7 72.7a1.2 1.2 0 00-.3 0 1 1 0 00-.2 0 1.3 1.3 0 10.5 0zM902.7 54h-.5a1.3 1.3 0 10.5 0zM902.4 91.5a1 1 0 00-.2 0 1.3 1.3 0 10.5 0 1.2 1.2 0 00-.3 0zM902.7 35.1h-.5a1.3 1.3 0 10.5 0zM902.7 16.4h-.5a1.3 1.3 0 10.5 0zM893 25.7a1.3 1.3 0 101.3 1.4 1.3 1.3 0 00-1.3-1.4zM874.2 44.5a1.3 1.3 0 101.3 1.3 1.3 1.3 0 00-1.3-1.3zM874.2 25.7a1.3 1.3 0 101.3 1.4 1.3 1.3 0 00-1.3-1.4zM874.2 103.5a1.3 1.3 0 10-1.3-1.3 1.3 1.3 0 001.3 1.3zM940.3 54h-.6a1.3 1.3 0 10.6 0zM874.2 82.1a1.3 1.3 0 101.3 1.3 1.3 1.3 0 00-1.3-1.3zM874.2 63.3a1.3 1.3 0 101.3 1.3 1.3 1.3 0 00-1.3-1.3zM883.9 54h-.5a1.3 1.3 0 10.5 0zM883.6 91.5a1 1 0 00-.2 0 1.3 1.3 0 10.5 0 1.2 1.2 0 00-.3 0zM883.9 72.7a1.2 1.2 0 00-.3 0 1 1 0 00-.2 0 1.3 1.3 0 10.5 0zM883.9 35.1h-.5a1.3 1.3 0 10.5 0zM883.9 16.4h-.5a1.3 1.3 0 10.5 0zM846 72.7a1 1 0 00-.2 0 1.3 1.3 0 10.5 0 1.2 1.2 0 00-.3 0zM930.6 82.1a1.3 1.3 0 101.3 1.3 1.3 1.3 0 00-1.3-1.3zM940 91.5a1.1 1.1 0 00-.3 0 1.3 1.3 0 10.6 0 1.2 1.2 0 00-.3 0zM930.6 63.3a1.3 1.3 0 101.3 1.3 1.3 1.3 0 00-1.3-1.3zM930.6 44.5a1.3 1.3 0 101.3 1.3 1.3 1.3 0 00-1.3-1.3zM930.6 100.9a1.3 1.3 0 101.3 1.3 1.3 1.3 0 00-1.3-1.3zM940.3 72.7a1.2 1.2 0 00-.3 0 1.1 1.1 0 00-.3 0 1.3 1.3 0 10.6 0zM846.3 35.1h-.5a1.3 1.3 0 00-1 1.3 1.3 1.3 0 102.6 0 1.3 1.3 0 00-1-1.3zM940.3 35.1h-.6a1.3 1.3 0 00.3 2.7 1.3 1.3 0 001.2-.8l-.1-1.3a1.3 1.3 0 00-.8-.6zM846.3 54h-.5a1.3 1.3 0 00-1 1.2 1.3 1.3 0 102.6 0 1.3 1.3 0 00-1-1.3zM846 94.1a1.3 1.3 0 00.3-2.6 1.2 1.2 0 00-.3 0 1 1 0 00-.2 0 1.3 1.3 0 00.3 2.6zM846.3 16.4h-.5a1.3 1.3 0 00-1 1.3 1.3 1.3 0 102.6 0 1.3 1.3 0 00-1-1.3zM921.5 72.7h-.3a1 1 0 00-.3 0 1.3 1.3 0 10.6 0zM911.8 100.9a1.3 1.3 0 101.3 1.3 1.3 1.3 0 00-1.3-1.3zM911.8 63.3a1.3 1.3 0 101.3 1.3 1.3 1.3 0 00-1.3-1.3zM911.8 82.1a1.3 1.3 0 101.3 1.3 1.3 1.3 0 00-1.3-1.3zM911.8 44.5a1.3 1.3 0 101.3 1.3 1.3 1.3 0 00-1.3-1.3zM930.6 25.7a1.3 1.3 0 101.3 1.4 1.3 1.3 0 00-1.3-1.4zM911.8 25.7a1.3 1.3 0 101.3 1.4 1.3 1.3 0 00-1.3-1.4zM911.8 7a1.3 1.3 0 101.3 1.3 1.3 1.3 0 00-1.3-1.4zM921.2 91.5a1 1 0 00-.3 0 1.3 1.3 0 10.6 0zM921.5 35.1h-.6a1.3 1.3 0 10.6 0zM921.5 16.4h-.6a1.3 1.3 0 10.6 0zM921.5 54h-.6a1.3 1.3 0 10.6 0z"/>
      <path class="cls-9" d="M817.2 226.4a31.3 31.3 0 00-26-30.8 34.2 34.2 0 00-52.3-38 34.2 34.2 0 00-62.9-.5 34.2 34.2 0 00-50.2 35 29 29 0 00-2.5 0 32.9 32.9 0 000 65.7h166.3v-.3a31.3 31.3 0 0027.6-31z"/>
      <path class="cls-11" d="M670.6 154.8a34.3 34.3 0 00-4-1.1l-75.9 75.8a34 34 0 001 4.3zM699.8 137.6a33.6 33.6 0 00-8.3 3L677 155.2l-1 2-.7-.4-81.8 81.9a32.3 32.3 0 001.8 3.4zM728.8 144.3a34.2 34.2 0 00-3-2.2L612 255.8a32.3 32.3 0 004 1.1zM757.1 151.6a34.8 34.8 0 00-6 .8L645.8 257.7h5.2zM721.4 139.8a34.8 34.8 0 00-3.8-1.5L604.2 251.7a33.1 33.1 0 003.2 2zM739.7 157.2l-.8.5a32.5 32.5 0 00-1.6-3.3L633.9 257.7h5.2zM817 229.4l-28.4 28.4h1v-.3a30.8 30.8 0 005.7-1.2l20.3-20.4a31.8 31.8 0 001.4-6.5zM732.2 147.5L622 257.7h5.2l107.4-107.4a34 34 0 00-2.4-2.8zM625.4 188l35.1-35a33.8 33.8 0 00-5.5.3l-29.3 29.3a35 35 0 00-.3 5.5zM707.3 136.7L598.1 246a32 32 0 002.5 2.7L712.2 137a35.1 35.1 0 00-4.9-.4zM621.4 192a33.7 33.7 0 00-6.1 1l-24 24a32.6 32.6 0 00-.8 6zM645.6 156l-2.7 1.3a34 34 0 00-14.5 16zM767.7 153a31.7 31.7 0 00-4.3-1L657.8 257.8h5.2zM803.5 200.5a33.5 33.5 0 00-3.3-1.9L741 257.8h5.2zM795.4 196.6a30.2 30.2 0 00-4.1-1L729 257.7h5.2zM817 222.8a30.2 30.2 0 00-.9-4.4l-39.4 39.3h5.3zM814.3 213.4a30.7 30.7 0 00-1.8-3.4l-47.7 47.7h5.2zM809.7 206.2a32.1 32.1 0 00-2.5-2.7l-54.3 54.2h5.2zM782.7 161.8a33.9 33.9 0 00-2.7-2.5l-98.5 98.4h5.2zM776 156.6l-1.3-.8-2-1-103 103h5.2zM787.8 168.5a32.1 32.1 0 00-2-3.1l-92.4 92.3h5.2zM792.5 187.7a34.7 34.7 0 00-.1-5.1l-75.2 75.2h5.2zM791.4 177a33.9 33.9 0 00-1.3-4l-84.8 84.8h5.2z"/>
      <path class="cls-2" d="M695.5 216.7a10.2 10.2 0 11-10.2-10.2 10.2 10.2 0 0110.2 10.2zM784 216.7a10.2 10.2 0 11-10.1-10.2 10.2 10.2 0 0110.1 10.2z"/>
      <path class="cls-6" d="M751.5 195.9a12.3 12.3 0 019.4 4.3l-1.9 1.6a9.8 9.8 0 00-15 0l-1.8-1.6a12.3 12.3 0 019.3-4.3zM707.6 195.9a12.3 12.3 0 019.4 4.3l-1.9 1.6a9.8 9.8 0 00-15 0l-1.8-1.6a12.2 12.2 0 019.3-4.3zM729.6 232.8a20.6 20.6 0 01-12.2-4l1.5-2a18.2 18.2 0 0021.4 0l1.4 2a20.5 20.5 0 01-12.1 4z"/>
    </g>
    <g id="butterflies">
      <path class="cls-2" d="M973.7 234.5c-16-34.5-54 4.4-63.2 15.8l5 10.9 4.8 11c14.7.7 70.1-1.8 53.4-37.7z"/>
      <path class="cls-2" d="M961.2 302.6c-12.3 22.2-42.8-4.2-50.3-13.6l3.7-8.9 3.7-8.9c11.5-.3 59.1 2.2 42.9 31.4zM850.2 302.6c12.3 22.2 42.9-4.2 50.3-13.6l-3.7-8.9-3.6-8.9c-11.6-.3-59.2 2.2-43 31.4z"/>
      <path class="cls-2" d="M837.8 234.5c16-34.5 53.9 4.4 63 15.8l-4.8 10.9-4.9 11c-14.6.7-70.1-1.8-53.3-37.7z"/>
      <path class="cls-7" d="M916.2 270l-3.5-8-3.5-8c6.6-8.2 34-36.3 45.7-11.4 12.1 26.2-28 28-38.7 27.4zm-1.6 2.9l-2.7 6.4-2.6 6.4c5.4 6.9 28.9 26.4 37.8 10.4 11.7-21.2-24.1-23.4-32.5-23.2zM864.4 296c8.9 16 32.4-3.5 37.8-10.4l-2.7-6.4-2.7-6.4c-8.3-.2-44.2 2-32.4 23.3zm30.8-26.1l3.5-8 3.6-8c-6.7-8.2-34.1-36.3-45.8-11.4-12.1 26.2 28 28 38.7 27.4z"/>
      <path class="cls-8" d="M939.1 294.7a2 2 0 10-2 2 2 2 0 002-2zM922.8 294.7a2 2 0 00-4-.2l2.8 2a2 2 0 001.2-1.8zM918.7 278.4a2 2 0 102-2 2 2 0 00-2 2zM947.3 286.5a2 2 0 00-1.7-2 1.8 1.8 0 00-.4 0 2 2 0 00-.4 0 2 2 0 102.5 2zM945.2 257a2 2 0 00.4-4 1.8 1.8 0 00-.4 0 2 2 0 00-.4 0 2 2 0 00.4 4zM945.2 236.6a2 2 0 00-.4 0 2 2 0 10.8 0 1.8 1.8 0 00-.4 0zM929 284.5a1.8 1.8 0 00-.5 0 2 2 0 10.8 0 2 2 0 00-.4 0zM937 261a2 2 0 102 2.1 2 2 0 00-2-2zM926.9 238.7a2 2 0 102.4-2 1.9 1.9 0 00-.3 0l-2 1.2a2 2 0 00-.1.8zM935 278.4a2 2 0 102-2 2 2 0 00-2 2zM929.3 253a2 2 0 00-.4 0 1.8 1.8 0 00-.4 0 2 2 0 10.8 0zM937 244.8a2 2 0 102 2 2 2 0 00-2-2zM920.8 244.8a2 2 0 102 2 2 2 0 00-2-2zM920.8 261a2 2 0 102 2.1 2 2 0 00-2-2zM955.4 246.8a2 2 0 10-2 2 2 2 0 002-2zM881.5 253a2 2 0 00-.4 0 1.8 1.8 0 00-.4 0 2 2 0 10.8 0zM870.9 246.8a2 2 0 102-2 2 2 0 00-2 2zM881.5 236.7a2 2 0 00-.4 0 1.8 1.8 0 00-.4 0 2 2 0 10.8 0zM873 292.6a2 2 0 102 2 2 2 0 00-2-2zM891.3 294.7a2 2 0 10-2 2 2.3 2.3 0 00.3 0l1.4-.9a2 2 0 00.3-1.1zM873 265.2a2 2 0 10-2-2.1 2 2 0 002 2zM889.2 261a2 2 0 102 2.1 2 2 0 00-2-2zM870.9 278.4a2 2 0 102.5-2l-2.2.8a2 2 0 00-.3 1.2zM864.8 236.6a2 2 0 00-.4 0 2 2 0 10.8 0 1.8 1.8 0 00-.4 0zM864.8 257a2 2 0 00.4-4 1.8 1.8 0 00-.4 0 2 2 0 00-.4 0 2 2 0 00.4 4zM858.7 246.8a2 2 0 00-2-2 2.1 2.1 0 00-1.1.3 22.8 22.8 0 00-.8 2.6 2 2 0 003.9-.8zM866.8 286.5a2 2 0 00-1.6-2 1.8 1.8 0 00-.4 0 2 2 0 00-.4 0 2 2 0 102.4 2zM887.2 278.4a2 2 0 102-2 2 2 0 00-2 2zM889.2 244.8a2 2 0 102 2 2 2 0 00-2-2zM881 284.5a1.8 1.8 0 00-.3 0 2 2 0 10.8 0 2 2 0 00-.4 0z"/>
      <path d="M919.9 272.6c0 26-6.3 37.7-14.2 37.7s-14.2-11.6-14.2-37.7 6.4-47.1 14.2-47.1 14.2 21 14.2 47.1z" fill="#f9b000"/>
      <path class="cls-7" d="M891.6 270.2v6.3a356.5 356.5 0 0028.3 0v-3.9-2.4a926.3 926.3 0 01-28.3 0zM919.3 259.5l-.7-6.3h-25.8l-.7 6.3q6.6.2 13.6.2t13.6-.2zM892.4 287.2c.2 2.3.6 4.4 1 6.4l12.3.1 12.3-.1q.6-3 1-6.4H892.3z"/>
      <path class="cls-2" d="M895.4 185.6a3.2 3.2 0 11-3.2-3.2 3.2 3.2 0 013.2 3.2z"/>
      <path class="cls-2" d="M899.6 198.8c-.5-5.7-3-9.6-7.6-12.2l.9-1.6a16 16 0 018.6 13.7zM916 185.6a3.2 3.2 0 103.2-3.2 3.2 3.2 0 00-3.2 3.2z"/>
      <path class="cls-2" d="M911.8 198.8c.5-5.7 3-9.6 7.7-12.2l-1-1.6a16 16 0 00-8.5 13.7z"/>
      <path class="cls-7" d="M930 217.6a24.3 24.3 0 11-24.3-24.4 24.3 24.3 0 0124.4 24.4z"/>
      <path class="cls-2" d="M895.6 220.8a4.4 4.4 0 11-4.4-4.4 4.4 4.4 0 014.4 4.4zM924.7 220.8a4.4 4.4 0 11-4.5-4.4 4.4 4.4 0 014.5 4.4z"/>
      <path class="cls-6" d="M918.1 209.9a7 7 0 015.3 2.4l-1 1a5.5 5.5 0 00-8.5 0l-1-1a7 7 0 015.3-2.4zM893.3 209.9a7 7 0 015.3 2.4l-1 1a5.6 5.6 0 00-8.5 0l-1-1a7 7 0 015.2-2.4zM905.7 230.8a11.6 11.6 0 01-6.9-2.2l.9-1.1a10.3 10.3 0 0012 0l.9 1a11.6 11.6 0 01-6.9 2.3z"/>
      <path class="cls-2" d="M908.5 220.6a2.8 2.8 0 11-2.8-2.8 2.8 2.8 0 012.8 2.8zM654 112c-3.5 3-15.4 15.5-4 20 9.5 3.7 11-8 11-14.4l1.3.8a6.4 6.4 0 008.8 7.6 4.3 4.3 0 01.5 2.8 1 1 0 10.8 1.7 1 1 0 000-1.4.9.9 0 00-.3-.2 4.8 4.8 0 00-.5-3.1 6.3 6.3 0 001.2-1 6.1 6.1 0 001-1.3 5.2 5.2 0 003.5.8.7.7 0 00.2.3 1.1 1.1 0 001.6-1.5 1.1 1.1 0 00-1.5 0 1.1 1.1 0 00-.4.6 4.7 4.7 0 01-3-.7 6.4 6.4 0 00-7.4-9l-.6-1.2c6.4.3 17.7-.8 14.5-10.2-4-11.6-16.8-.5-20 3 3.3-3.2 11.7-13 2.4-15.8-6-1.9-8 5.5-8.4 10.5-3-2-5.1-2-6.4-.9s-1.1 3.4.8 6.6c-5 .1-12.8 1.8-11.2 7.9 2.6 9.6 13 1.1 16-1.9l.3.3z"/>
      <path class="cls-6" d="M561.3 9.4l1.4.6.4-.9-1.3-.6zM643.2 91.7l1.5 2.6.8-.4-1.4-2.7zM641 86l1 2.9 1-.4c-.4-1-.8-1.9-1-2.8zm-1.6-5.9l.7 3 1-.2-.7-3zm-1-6c0 1 .2 2 .4 3l1-.1-.4-3zm-.6-6.1l.2 3h1l-.2-3zm0-6v3h1v-3zm.5-6.2l-.3 3 1 .1.3-3zm.9-6l-.5 3 1 .2.5-3zm1.3-5.9l-.7 3 1 .2.7-3zm1.7-5.8l-.9 2.9 1 .2 1-2.8zm2.2-5.7l-1.1 2.8.9.4 1.1-2.8zm2.6-5.5l-1.4 2.7 1 .4 1.3-2.7zm3-5.3l-1.5 2.6.9.5 1.5-2.5zm3.7-4.9l-1.9 2.4.8.6 1.9-2.4zm4.2-4.4l-2.1 2.1.7.7 2-2zm4.9-3.8l-2.5 1.8.6.8 2.4-1.7zm5.4-2.7a27.7 27.7 0 00-2.8 1.2l.5.9a27 27 0 012.7-1.2zm6-1.5a25.5 25.5 0 00-3 .6l.3 1a23.5 23.5 0 012.9-.6zm6.2 0a24.6 24.6 0 00-3-.2v1a24.4 24.4 0 012.9.2zm6 1.4a30.5 30.5 0 00-3-.8l-.2 1a29.4 29.4 0 012.9.8zm5.6 2.6l-2.8-1.4-.4 1c.9.3 1.8.8 2.7 1.3zm5 3.4a42 42 0 00-2.5-1.8l-.5.9a44 44 0 012.4 1.7zm4.3 4.5a18.3 18.3 0 00-2-2.4l-.7.7a17.8 17.8 0 011.9 2.2zm2.6 5.6a18.7 18.7 0 00-1-3l-1 .5a17 17 0 011 2.7zm.7 6.1v-.7a20 20 0 00-.2-2.4l-1 .1a20.3 20.3 0 01.1 2.3v.7zm-1 6a24.3 24.3 0 00.6-3h-1a24.7 24.7 0 01-.6 2.8zm-2.4 5.8a29.1 29.1 0 001.3-2.8l-1-.4a28.3 28.3 0 01-1.2 2.7zm-3.5 5l1.8-2.4-.8-.6-1.8 2.4zm-4.4 4.3l2.3-2-.7-.7a27.7 27.7 0 01-2.3 2zm-5.2 3.3l2.7-1.5-.6-.8a28 28 0 01-2.6 1.4zm-5.7 2.3l2.1-.7.8-.3-.4-1-.7.3-2 .7zm-6 1.2l3-.5-.2-1-3 .5zm-6 .4h3l-.1-1h-3zm-6.2-.2l3 .2v-1l-3-.2zm-6-.9l3 .5.2-1-3-.5zm-6-1.3l3 .7.2-1-2.9-.7zm-5.8-1.6l2.9.9.2-1-2.8-.9zm-5.8-1.9l2.9 1 .3-1-2.8-1zm-5.6-2.2l2.8 1.1.4-1-2.8-1zm-5.6-2.3l2.8 1.2.4-1-2.8-1.1zm-5.5-2.5l2.7 1.3.4-1-2.7-1.2zm-5.5-2.6l2.7 1.3.4-.9-2.7-1.3zm-5.5-2.7l2.7 1.4.5-1-2.7-1.3zm-5.3-2.8l2.6 1.4.5-.9-2.6-1.4zm-5.3-2.9l2.6 1.4.5-.8-2.7-1.5zm-5.3-3l2.6 1.5.5-.9-2.6-1.5zm-5.3-3l2.6 1.5.6-.9-2.7-1.5zm-5.2-3l2.6 1.5.5-.9-2.6-1.5zm-5.3-3l2.6 1.5.6-.9-2.7-1.4zm-5.2-3l2.6 1.5.5-.9-2.6-1.5zm-5.3-3l2.6 1.5.5-.9-2.6-1.5zm-5.3-2.9l2.6 1.4.5-.8-2.7-1.5zM646.3 97l.9 1.2.8-.6a26 26 0 01-.9-1.2z"/>
    </g>
    <g id="daffodil">
      <path class="cls-1" d="M890.1 719h3.8v205.2h-3.8z"/>
      <path class="cls-1" d="M967 779c-18.6 6.4-54.5 15.4-74.4 61.3 39.2-3.1 49.8-41.5 74.3-61.2zM817 779c18.6 6.4 54.4 15.4 74.4 61.3-39.3-3.1-49.9-41.5-74.4-61.2z"/>
      <path class="cls-7" d="M856.6 636.2c2 21.6-8.4 63.6 35.4 61.3 23.8-36.8-17.7-48.7-35.4-61.3z"/>
      <path class="cls-7" d="M821.3 697.5c19.7 9 50.8 39 70.7 0-20-39-51-9.1-70.7 0z"/>
      <path class="cls-7" d="M856.6 758.7c17.7-12.6 59.2-24.5 35.4-61.2-43.8-2.3-33.4 39.6-35.4 61.2z"/>
      <path class="cls-7" d="M927.3 758.7c-2-21.6 8.4-63.5-35.3-61.2-23.9 36.7 17.6 48.6 35.3 61.2z"/>
      <path class="cls-7" d="M962.6 697.5c-19.7-9.1-50.8-39-70.6 0 19.8 39 51 9 70.6 0z"/>
      <path class="cls-7" d="M927.3 636.2c-17.7 12.6-59.2 24.5-35.3 61.3 43.7 2.3 33.3-39.7 35.3-61.3z"/>
      <path class="cls-16" d="M913 698.4c0 1-2.3 1.8-2.4 2.7s1.7 2.3 1.5 3.2-2.6 1-3 2 1 2.6.5 3.4-2.8.3-3.4 1 .2 3-.5 3.5-2.8-.5-3.6 0-.6 2.9-1.5 3.3-2.4-1.3-3.4-1-1.3 2.5-2.3 2.7-2-2-3-2-2 2-3 2-1.4-2.5-2.3-2.7-2.5 1.4-3.4 1-.7-2.8-1.5-3.3-2.8.7-3.5 0 .1-2.8-.5-3.5-2.9-.2-3.4-1 .9-2.6.5-3.5-2.7-1-3-1.9 1.6-2.3 1.5-3.2-2.3-1.7-2.3-2.7 2.2-1.8 2.3-2.7-1.7-2.3-1.4-3.2 2.6-1 3-2-1-2.6-.6-3.4 2.8-.3 3.5-1-.3-3 .4-3.5 2.8.5 3.6 0 .6-2.9 1.5-3.3 2.4 1.3 3.4 1 1.3-2.5 2.3-2.7 2 2 3 2 2-2.1 3-2 1.4 2.4 2.3 2.7 2.6-1.4 3.4-1 .7 2.8 1.5 3.3 2.8-.7 3.5 0-.1 2.8.5 3.5 3 .2 3.4 1-.9 2.6-.5 3.5 2.7 1 3 1.9-1.6 2.3-1.5 3.2 2.3 1.7 2.3 2.7z"/>
      <path class="cls-4" d="M907.9 698.4c0 .7-1.7 1.3-1.8 2s1.3 1.8 1.1 2.5-2 .7-2.3 1.4.8 2 .4 2.7-2 .2-2.5.7.1 2.2-.4 2.7-2.1-.4-2.7 0-.5 2.1-1.1 2.4-2-1-2.6-.7-1 2-1.8 2-1.5-1.5-2.2-1.5-1.6 1.6-2.3 1.5-1-1.9-1.8-2-1.9 1-2.6.7-.5-2-1-2.4-2.2.5-2.8 0 .1-2.1-.3-2.7-2.2-.1-2.6-.7.7-2 .4-2.7-2.1-.8-2.3-1.4 1.2-1.8 1.1-2.5-1.7-1.3-1.7-2 1.6-1.3 1.7-2-1.3-1.8-1.1-2.5 2-.8 2.3-1.4-.8-2-.4-2.7 2.1-.2 2.6-.7-.2-2.2.3-2.7 2.1.4 2.7 0 .5-2.1 1.1-2.4 2 1 2.6.7 1-1.9 1.8-2 1.5 1.5 2.3 1.5 1.5-1.6 2.2-1.5 1.1 1.9 1.8 2 2-1 2.6-.7.5 2 1 2.4 2.2-.5 2.8 0-.1 2.1.4 2.7 2.2.1 2.5.7-.7 2-.3 2.7 2 .8 2.2 1.4-1.2 1.8-1.1 2.5 1.8 1.3 1.8 2z"/>
      <path class="cls-16" d="M899.4 698.4c0 .3-.8.6-.9 1s.6.8.5 1-.9.5-1 .8.4 1 .2 1.2-1 .1-1.2.3.1 1-.2 1.3-1-.2-1.2 0-.2 1-.5 1.1-.9-.4-1.2-.3-.5.9-.8 1-.8-.8-1-.8-.8.8-1 .7-.6-.8-1-1-.8.6-1.1.4-.3-1-.5-1.1-1 .2-1.3 0 0-1-.2-1.2-1-.1-1.2-.4.4-1 .2-1.2-1-.4-1-.7.5-.8.5-1.1-.8-.7-.8-1 .7-.6.8-1-.6-.8-.5-1 .9-.5 1-.8-.4-1-.2-1.2 1 0 1.2-.3 0-1 .2-1.3 1 .2 1.3 0 .2-1 .5-1.1.9.4 1.2.3.5-.9.8-1 .7.7 1 .7.8-.7 1-.6.6.8.9 1 .9-.6 1.2-.4.2 1 .5 1.1 1-.2 1.2 0 0 1 .2 1.3 1 0 1.2.3-.3 1-.2 1.3 1 .3 1 .6-.5.8-.5 1.2.9.6.9 1z"/>
      <path class="cls-2" d="M864 960.4a221.4 221.4 0 0055.9 0l6.2-68.8h-68.3z"/>
      <path class="cls-20" d="M907.6 891.6h-5l-41 41.1.3 4.5 45.7-45.6zM896.3 891.6h-5l-30.7 30.8.4 4.5 35.3-35.3zM885 891.6h-5L859.7 912l.5 4.6 25-25zM873.7 891.6h-4.9l-10 10.1.3 4.5 14.6-14.6zM857.8 891.6l.4 4.3 4.3-4.3h-4.7zM922.9 927.8L888.5 962h4.9l29-29zM921.2 945.6l.5-5.4L900 962c1.8 0 3.5-.1 5.2-.3zM923.5 920.8l.5-5.4-46.3 46.3 4.7.2zM918.8 891.6H914l-51.4 51.5.4 4.5 56-56zM920.1 958l.5-5.4-8.6 8.6q2.8-.2 5.5-.6zM924.6 908.4l.5-5.4-57.8 57.8 4.5.4zM925.7 896l.4-4.4h-1l-61.7 61.8.4 4.5 62-61.9z"/>
      <path class="cls-9" d="M928 905l.3-25q-36.3 1.8-72.7 0l.3 25q36 1.7 72.1 0z"/>
    </g>
  </g>
</svg>