<svg xmlns="http://www.w3.org/2000/svg" viewBox="0 0 306.1 306.1">
  <defs>
    <style>
      .cls-1{fill:#fc0}.cls-2{fill:#f39200}.cls-3{fill:#1d1d1b}
    </style>
  </defs>
  <g id="Layer_2" data-name="Layer 2">
    <g id="sun">
      <path class="cls-1" d="M306.1 153l-47.6 14.2 42.3 26.2-49.7 1 34.2 35.8-48-12.2 24 43.3-43.3-24 12.3 48-35.8-34.2-1.1 49.7-26.2-42.3-14.1 47.6-14.2-47.6-26.1 42.3-1.1-49.7-35.8 34.2 12.2-48-43.3 24 24-43.3-48 12.2L55 194.5l-49.6-1.1 42.2-26.2L0 153.1l47.6-14.2-42.2-26.1 49.6-1.1L21 75.9 68.8 88l-24-43.3 43.3 24-12.2-48L111.7 55l1-49.6L139 47.6 153.1 0l14.1 47.6 26.2-42.2 1 49.6L230.3 21 218 68.8l43.3-24-24 43.3 48-12.2-34.2 35.8 49.7 1-42.3 26.2 47.6 14.2z"/>
      <path class="cls-2" d="M142.7 252.6a18 18 0 01-16.2-17.5 18 18 0 01-31-17.9 18 18 0 01-21.2-29 18 18 0 01-7.5-35 18 18 0 017.4-35.1 18 18 0 0121-29 18 18 0 0131-18 18 18 0 0135.7-3.8 18 18 0 0134 11 18 18 0 0126.8 23.9 18 18 0 0114.7 32.7 18 18 0 0115.7 17.8v.3a18 18 0 01-15.7 18 18 18 0 01-14.5 32.8 18 18 0 01-26.7 24 18 18 0 01-34 11 18 18 0 01-17.6 14 17 17 0 01-2-.2zm3.7-36a18 18 0 0114.5 10.2 18 18 0 0129.3-9.5 18 18 0 0122.9-20.7 18 18 0 0112.5-28.2 18 18 0 01-8.6-15.3v-.1a18 18 0 018.6-15.5 18 18 0 01-12.6-28.2 18 18 0 01-23-20.6 18 18 0 01-29.3-9.4 18 18 0 01-30.7 3.3A18 18 0 01103.4 98a18.1 18.1 0 01-18.1 25 18 18 0 01-6.4 30.1 18.1 18.1 0 016.5 30.2 18 18 0 0118 25 18 18 0 0126.8 15.3 18 18 0 0114.3-7h2z"/>
      <path class="cls-1" d="M235 153a82 82 0 11-82-82 82 82 0 0182 82z"/>
      <path class="cls-2" d="M119 161.3a15 15 0 11-15-15 15 15 0 0115 15zM216.6 161.3a15 15 0 11-15-15 15 15 0 0115 15z"/>
      <path class="cls-3" d="M194.7 125.8a23.3 23.3 0 0117.7 8.2l-3.5 3a18.7 18.7 0 00-28.4 0l-3.6-3a23.3 23.3 0 0117.8-8.2zM111 125.8A23.3 23.3 0 01129 134l-3.6 3a18.7 18.7 0 00-28.4 0l-3.6-3a23.3 23.3 0 0117.8-8.2zM152.9 195a39.3 39.3 0 01-23.1-7.6l2.7-3.8a34.6 34.6 0 0040.8 0l2.7 3.8a39.3 39.3 0 01-23.1 7.5z"/>
    </g>
  </g>
</svg>